# xmcd
#
# Track frame offsets: 
#        150
#        13134
#        27149
#        39938
#        54580
#        67494
#        78569
#        93629
#        104662
#
# Disc length: 1608 seconds
#
# Revision: 0
# Processed by: cddbd v1.5.2PL0 Copyright (c) Steve Scherf et al.
# Submitted via: ExactAudioCopyFreeDBPlugin 1.0
#
DISCID=7a064609
DTITLE=Dusty Rust - Dusty Rust
DYEAR=2013
DGENRE=Country
TTITLE0=Samantha
TTITLE1=I'm Getting Drunk Tonight
TTITLE2=Slammin' Doors
TTITLE3=Deer Friends
TTITLE4=Ride On
TTITLE5=Cabin By The Creek
TTITLE6=Cindy Lou
TTITLE7=Doin' Time
TTITLE8=My Barstool
EXTD=
EXTT0=
EXTT1=
EXTT2=
EXTT3=
EXTT4=
EXTT5=
EXTT6=
EXTT7=
EXTT8=
PLAYORDER=
